<mxfile host="app.diagrams.net" modified="2023-09-10T20:56:10.952Z" agent="Mozilla/5.0 (Windows NT 10.0; Win64; x64) AppleWebKit/537.36 (KHTML, like Gecko) Chrome/116.0.0.0 Safari/537.36 Edg/116.0.1938.76" etag="-8cL3Q1k6f84T7V9M5GK" version="21.7.4" type="device">
  <diagram name="Страница — 1" id="Uecgk_jYdJgBSRdwU811">
    <mxGraphModel dx="733" dy="801" grid="1" gridSize="10" guides="1" tooltips="1" connect="1" arrows="1" fold="1" page="1" pageScale="1" pageWidth="827" pageHeight="1169" math="0" shadow="0">
      <root>
        <mxCell id="0" />
        <mxCell id="1" parent="0" />
        <mxCell id="mRBKJFos0WAlF_mczG2k-3" style="edgeStyle=orthogonalEdgeStyle;rounded=0;orthogonalLoop=1;jettySize=auto;html=1;exitX=0.5;exitY=1;exitDx=0;exitDy=0;entryX=0.5;entryY=0;entryDx=0;entryDy=0;" edge="1" parent="1" source="mRBKJFos0WAlF_mczG2k-1" target="mRBKJFos0WAlF_mczG2k-2">
          <mxGeometry relative="1" as="geometry" />
        </mxCell>
        <mxCell id="mRBKJFos0WAlF_mczG2k-1" value="Начало" style="ellipse;whiteSpace=wrap;html=1;" vertex="1" parent="1">
          <mxGeometry x="340" y="90" width="120" height="40" as="geometry" />
        </mxCell>
        <mxCell id="mRBKJFos0WAlF_mczG2k-5" style="edgeStyle=orthogonalEdgeStyle;rounded=0;orthogonalLoop=1;jettySize=auto;html=1;exitX=0.5;exitY=1;exitDx=0;exitDy=0;entryX=0.5;entryY=0;entryDx=0;entryDy=0;" edge="1" parent="1" source="mRBKJFos0WAlF_mczG2k-2" target="mRBKJFos0WAlF_mczG2k-4">
          <mxGeometry relative="1" as="geometry" />
        </mxCell>
        <mxCell id="mRBKJFos0WAlF_mczG2k-2" value="Таблица расходы" style="shape=parallelogram;perimeter=parallelogramPerimeter;whiteSpace=wrap;html=1;fixedSize=1;" vertex="1" parent="1">
          <mxGeometry x="305" y="160" width="190" height="40" as="geometry" />
        </mxCell>
        <mxCell id="mRBKJFos0WAlF_mczG2k-35" style="edgeStyle=orthogonalEdgeStyle;rounded=0;orthogonalLoop=1;jettySize=auto;html=1;exitX=0.5;exitY=1;exitDx=0;exitDy=0;entryX=0.5;entryY=0;entryDx=0;entryDy=0;" edge="1" parent="1" source="mRBKJFos0WAlF_mczG2k-4" target="mRBKJFos0WAlF_mczG2k-9">
          <mxGeometry relative="1" as="geometry" />
        </mxCell>
        <mxCell id="mRBKJFos0WAlF_mczG2k-4" value="Поиск столбцов Цена и Количество" style="rounded=0;whiteSpace=wrap;html=1;" vertex="1" parent="1">
          <mxGeometry x="340" y="230" width="120" height="60" as="geometry" />
        </mxCell>
        <mxCell id="mRBKJFos0WAlF_mczG2k-8" style="edgeStyle=orthogonalEdgeStyle;rounded=0;orthogonalLoop=1;jettySize=auto;html=1;exitX=0.5;exitY=1;exitDx=0;exitDy=0;entryX=0.5;entryY=0;entryDx=0;entryDy=0;" edge="1" parent="1" source="mRBKJFos0WAlF_mczG2k-6" target="mRBKJFos0WAlF_mczG2k-7">
          <mxGeometry relative="1" as="geometry" />
        </mxCell>
        <mxCell id="mRBKJFos0WAlF_mczG2k-6" value="Итоговая таблица данных" style="shape=parallelogram;perimeter=parallelogramPerimeter;whiteSpace=wrap;html=1;fixedSize=1;" vertex="1" parent="1">
          <mxGeometry x="312.5" y="515" width="140" height="60" as="geometry" />
        </mxCell>
        <mxCell id="mRBKJFos0WAlF_mczG2k-7" value="Конец" style="ellipse;whiteSpace=wrap;html=1;" vertex="1" parent="1">
          <mxGeometry x="322.5" y="605" width="120" height="40" as="geometry" />
        </mxCell>
        <mxCell id="mRBKJFos0WAlF_mczG2k-15" style="edgeStyle=orthogonalEdgeStyle;rounded=0;orthogonalLoop=1;jettySize=auto;html=1;exitX=0;exitY=0.5;exitDx=0;exitDy=0;entryX=0.5;entryY=0;entryDx=0;entryDy=0;" edge="1" parent="1" source="mRBKJFos0WAlF_mczG2k-9" target="mRBKJFos0WAlF_mczG2k-11">
          <mxGeometry relative="1" as="geometry" />
        </mxCell>
        <mxCell id="mRBKJFos0WAlF_mczG2k-24" style="edgeStyle=orthogonalEdgeStyle;rounded=0;orthogonalLoop=1;jettySize=auto;html=1;exitX=1;exitY=0.5;exitDx=0;exitDy=0;entryX=0.5;entryY=0;entryDx=0;entryDy=0;" edge="1" parent="1" source="mRBKJFos0WAlF_mczG2k-9" target="mRBKJFos0WAlF_mczG2k-20">
          <mxGeometry relative="1" as="geometry" />
        </mxCell>
        <mxCell id="mRBKJFos0WAlF_mczG2k-9" value="Количество &amp;gt; 0" style="rhombus;whiteSpace=wrap;html=1;" vertex="1" parent="1">
          <mxGeometry x="312.5" y="320" width="175" height="110" as="geometry" />
        </mxCell>
        <mxCell id="mRBKJFos0WAlF_mczG2k-10" value="Да" style="text;html=1;strokeColor=none;fillColor=none;align=center;verticalAlign=middle;whiteSpace=wrap;rounded=0;" vertex="1" parent="1">
          <mxGeometry x="260" y="350" width="60" height="30" as="geometry" />
        </mxCell>
        <mxCell id="mRBKJFos0WAlF_mczG2k-29" style="edgeStyle=orthogonalEdgeStyle;rounded=0;orthogonalLoop=1;jettySize=auto;html=1;exitX=0.5;exitY=1;exitDx=0;exitDy=0;entryX=0.5;entryY=0;entryDx=0;entryDy=0;" edge="1" parent="1" source="mRBKJFos0WAlF_mczG2k-11" target="mRBKJFos0WAlF_mczG2k-25">
          <mxGeometry relative="1" as="geometry" />
        </mxCell>
        <mxCell id="mRBKJFos0WAlF_mczG2k-11" value="Количество * Цена, запись" style="rounded=0;whiteSpace=wrap;html=1;" vertex="1" parent="1">
          <mxGeometry x="160" y="410" width="120" height="60" as="geometry" />
        </mxCell>
        <mxCell id="mRBKJFos0WAlF_mczG2k-12" style="edgeStyle=orthogonalEdgeStyle;rounded=0;orthogonalLoop=1;jettySize=auto;html=1;" edge="1" parent="1">
          <mxGeometry relative="1" as="geometry">
            <mxPoint x="400" y="300" as="targetPoint" />
            <Array as="points">
              <mxPoint x="129" y="545" />
              <mxPoint x="129" y="300" />
            </Array>
            <mxPoint x="149" y="545" as="sourcePoint" />
          </mxGeometry>
        </mxCell>
        <mxCell id="mRBKJFos0WAlF_mczG2k-13" value="Следующая строка" style="rounded=0;whiteSpace=wrap;html=1;" vertex="1" parent="1">
          <mxGeometry x="70" y="320" width="120" height="60" as="geometry" />
        </mxCell>
        <mxCell id="mRBKJFos0WAlF_mczG2k-16" value="Нет" style="text;html=1;strokeColor=none;fillColor=none;align=center;verticalAlign=middle;whiteSpace=wrap;rounded=0;" vertex="1" parent="1">
          <mxGeometry x="490" y="350" width="60" height="30" as="geometry" />
        </mxCell>
        <mxCell id="mRBKJFos0WAlF_mczG2k-17" style="edgeStyle=orthogonalEdgeStyle;rounded=0;orthogonalLoop=1;jettySize=auto;html=1;exitX=1;exitY=0.5;exitDx=0;exitDy=0;" edge="1" parent="1" source="mRBKJFos0WAlF_mczG2k-19">
          <mxGeometry relative="1" as="geometry">
            <mxPoint x="400" y="300" as="targetPoint" />
            <mxPoint x="670" y="450" as="sourcePoint" />
            <Array as="points">
              <mxPoint x="670" y="545" />
              <mxPoint x="670" y="300" />
            </Array>
          </mxGeometry>
        </mxCell>
        <mxCell id="mRBKJFos0WAlF_mczG2k-18" value="Следующая строка" style="rounded=0;whiteSpace=wrap;html=1;" vertex="1" parent="1">
          <mxGeometry x="610" y="320" width="120" height="60" as="geometry" />
        </mxCell>
        <mxCell id="mRBKJFos0WAlF_mczG2k-28" style="edgeStyle=orthogonalEdgeStyle;rounded=0;orthogonalLoop=1;jettySize=auto;html=1;exitX=0;exitY=0.5;exitDx=0;exitDy=0;entryX=1;entryY=0.5;entryDx=0;entryDy=0;" edge="1" parent="1" source="mRBKJFos0WAlF_mczG2k-19" target="mRBKJFos0WAlF_mczG2k-6">
          <mxGeometry relative="1" as="geometry" />
        </mxCell>
        <mxCell id="mRBKJFos0WAlF_mczG2k-19" value="Строки закончились" style="rhombus;whiteSpace=wrap;html=1;" vertex="1" parent="1">
          <mxGeometry x="490" y="505" width="140" height="80" as="geometry" />
        </mxCell>
        <mxCell id="mRBKJFos0WAlF_mczG2k-30" style="edgeStyle=orthogonalEdgeStyle;rounded=0;orthogonalLoop=1;jettySize=auto;html=1;exitX=0.5;exitY=1;exitDx=0;exitDy=0;entryX=0.5;entryY=0;entryDx=0;entryDy=0;" edge="1" parent="1" source="mRBKJFos0WAlF_mczG2k-20" target="mRBKJFos0WAlF_mczG2k-19">
          <mxGeometry relative="1" as="geometry" />
        </mxCell>
        <mxCell id="mRBKJFos0WAlF_mczG2k-20" value="Удаление строки&amp;nbsp;" style="rounded=0;whiteSpace=wrap;html=1;" vertex="1" parent="1">
          <mxGeometry x="500" y="410" width="120" height="60" as="geometry" />
        </mxCell>
        <mxCell id="mRBKJFos0WAlF_mczG2k-21" value="Да" style="text;html=1;strokeColor=none;fillColor=none;align=center;verticalAlign=middle;whiteSpace=wrap;rounded=0;" vertex="1" parent="1">
          <mxGeometry x="442.5" y="515" width="60" height="30" as="geometry" />
        </mxCell>
        <mxCell id="mRBKJFos0WAlF_mczG2k-27" style="edgeStyle=orthogonalEdgeStyle;rounded=0;orthogonalLoop=1;jettySize=auto;html=1;exitX=1;exitY=0.5;exitDx=0;exitDy=0;entryX=0;entryY=0.5;entryDx=0;entryDy=0;" edge="1" parent="1" source="mRBKJFos0WAlF_mczG2k-25" target="mRBKJFos0WAlF_mczG2k-6">
          <mxGeometry relative="1" as="geometry" />
        </mxCell>
        <mxCell id="mRBKJFos0WAlF_mczG2k-25" value="Строки закончились" style="rhombus;whiteSpace=wrap;html=1;" vertex="1" parent="1">
          <mxGeometry x="148.75" y="505" width="142.5" height="80" as="geometry" />
        </mxCell>
        <mxCell id="mRBKJFos0WAlF_mczG2k-26" value="Да" style="text;html=1;strokeColor=none;fillColor=none;align=center;verticalAlign=middle;whiteSpace=wrap;rounded=0;" vertex="1" parent="1">
          <mxGeometry x="270" y="515" width="60" height="30" as="geometry" />
        </mxCell>
        <mxCell id="mRBKJFos0WAlF_mczG2k-33" value="Нет" style="text;html=1;strokeColor=none;fillColor=none;align=center;verticalAlign=middle;whiteSpace=wrap;rounded=0;" vertex="1" parent="1">
          <mxGeometry x="610" y="515" width="60" height="30" as="geometry" />
        </mxCell>
        <mxCell id="mRBKJFos0WAlF_mczG2k-34" value="Нет" style="text;html=1;strokeColor=none;fillColor=none;align=center;verticalAlign=middle;whiteSpace=wrap;rounded=0;" vertex="1" parent="1">
          <mxGeometry x="120" y="515" width="60" height="30" as="geometry" />
        </mxCell>
      </root>
    </mxGraphModel>
  </diagram>
</mxfile>
